<?xml version="1.0" encoding="UTF-8"?>
<svg version="1.1" xmlns="http://www.w3.org/2000/svg" width="96" height="97">
<path d="M0 0 C1.6796875 1.3671875 1.6796875 1.3671875 2.6796875 3.3671875 C-10.86675546 12.42344628 -24.46032014 21.40678324 -38.0703125 30.3671875 C-41.02624412 32.31381197 -43.98208055 34.26058078 -46.93780518 36.20751953 C-48.75631214 37.40531906 -50.57494844 38.60292227 -52.39373779 39.80029297 C-53.21609924 40.34186035 -54.03846069 40.88342773 -54.88574219 41.44140625 C-56.03496155 42.19623291 -56.03496155 42.19623291 -57.20739746 42.96630859 C-58.53799592 43.8485056 -59.86205573 44.74072489 -61.1763916 45.64697266 C-65.12356275 48.3671875 -65.12356275 48.3671875 -67.3203125 48.3671875 C-71.29312807 40.46942161 -70.48479894 29.15509826 -68.4453125 20.76953125 C-63.34309917 7.76224397 -54.51132106 -1.12783139 -41.87109375 -6.65234375 C-27.41738489 -12.20805726 -12.33293245 -8.47066179 0 0 Z " fill="#33C0D3" transform="translate(74.3203125,13.6328125)"/>
<path d="M0 0 C0.66 0 1.32 0 2 0 C6.22707076 12.5554066 6.64582733 24.52019656 0.74609375 36.55859375 C-5.11216251 47.04598983 -12.69494885 53.75875859 -24 58 C-27.0926924 58.65866933 -29.82488936 58.89416298 -33 59 C-30.31707467 52.20000381 -26.75422165 45.93300335 -23.1875 39.5625 C-22.69935822 38.68733734 -22.69935822 38.68733734 -22.20135498 37.79449463 C-2.53298104 2.53298104 -2.53298104 2.53298104 0 0 Z " fill="#40C3D5" transform="translate(86,31)"/>
<path d="M0 0 C2.0625 1.75 2.0625 1.75 4 4 C3.65030115 7.4751323 1.99193109 9.68772301 -0.0625 12.4375 C-0.77664062 13.3965625 -1.49078125 14.355625 -2.2265625 15.34375 C-3.14976332 16.56346863 -4.07441336 17.78209086 -5 19 C-5.59393555 19.78246094 -6.18787109 20.56492187 -6.79980469 21.37109375 C-10.24930964 25.91126355 -13.70652181 30.44549255 -17.16796875 34.9765625 C-20.04445618 38.74363996 -22.90782983 42.51947583 -25.75 46.3125 C-26.41773437 47.20195313 -27.08546875 48.09140625 -27.7734375 49.0078125 C-29.56165127 51.41092083 -31.33438094 53.82365806 -33.1015625 56.2421875 C-33.64329102 56.97783936 -34.18501953 57.71349121 -34.74316406 58.47143555 C-35.81102806 59.9216153 -36.87312609 61.37606305 -37.92871094 62.83520508 C-38.65622559 63.81976685 -38.65622559 63.81976685 -39.3984375 64.82421875 C-40.04304932 65.70726685 -40.04304932 65.70726685 -40.70068359 66.6081543 C-42 68 -42 68 -45 69 C-47.26171875 68.22265625 -47.26171875 68.22265625 -49.6875 67.0625 C-50.49574219 66.68222656 -51.30398437 66.30195312 -52.13671875 65.91015625 C-52.75160156 65.60980469 -53.36648437 65.30945313 -54 65 C-54 61.04217714 -52.75270073 60.33275838 -50.0625 57.5 C-46.74117857 53.92399195 -43.5614436 50.30115749 -40.5 46.5 C-36.88850866 42.03579543 -33.11339306 37.76997886 -29.24609375 33.52734375 C-26.93812402 30.93037607 -24.74444137 28.26595987 -22.5625 25.5625 C-18.6629166 20.74416658 -14.56632425 16.15158425 -10.37109375 11.58984375 C-7.6235005 8.58876579 -4.94321378 5.53452883 -2.27734375 2.4609375 C-1.54167701 1.61953273 -0.79030613 0.79030613 0 0 Z " fill="#F68A28" transform="translate(81,21)"/>
<path d="M0 0 C0.66 0.66 1.32 1.32 2 2 C0.33388095 2.042721 -1.33382885 2.04063832 -3 2 C-3.495 1.505 -3.495 1.505 -4 1 C-6.32817964 0.63239269 -8.6618385 0.29758419 -11 0 C-11 -0.66 -11 -1.32 -11 -2 C-21.24899662 -1.97722445 -29.56043721 -1.74196314 -38.6171875 3.625 C-41 5 -41 5 -43.23046875 5.53515625 C-45.30125909 5.85717494 -45.30125909 5.85717494 -46.4375 8.4375 C-48.29291963 11.4803882 -49.65276481 12.00487602 -53 13 C-49.51727109 5.08155666 -42.13792561 1.23379076 -34.515625 -2.0546875 C-23.79382352 -6.08368743 -10.10921897 -5.39946588 0 0 Z " fill="#5EC6D3" transform="translate(67,9)"/>
<path d="M0 0 C2.0625 1.75 2.0625 1.75 4 4 C4.00803449 7.88869318 1.18126356 10.75831525 -1.0625 13.75 C-1.79597656 14.73484375 -2.52945313 15.7196875 -3.28515625 16.734375 C-3.85105469 17.48203125 -4.41695312 18.2296875 -5 19 C-5.99 17.68 -6.98 16.36 -8 15 C-9.98 15.66 -11.96 16.32 -14 17 C-12.70396588 14.17131143 -11.30810402 12.0298979 -9.1796875 9.765625 C-8.64472656 9.19199219 -8.10976562 8.61835938 -7.55859375 8.02734375 C-7.00300781 7.44082031 -6.44742188 6.85429687 -5.875 6.25 C-5.31167969 5.64800781 -4.74835938 5.04601562 -4.16796875 4.42578125 C-2.78275854 2.94665849 -1.3919271 1.47280359 0 0 Z " fill="#F29949" transform="translate(81,21)"/>
<path d="M0 0 C0.24213848 2.90566174 0.16185671 4.66729453 -1.125 7.3125 C-3 9 -3 9 -6 9.4375 C-9.19410622 8.97169284 -10.10442866 8.52742845 -12 6 C-9.05707332 -0.56499028 -7.24604106 -1.50389531 0 0 Z " fill="#F6851C" transform="translate(43,79)"/>
<path d="M0 0 C0.66 0 1.32 0 2 0 C2.33 1.98 2.66 3.96 3 6 C1.68 5.67 0.36 5.34 -1 5 C-1 6.65 -1 8.3 -1 10 C-1.62390625 10.21398438 -2.2478125 10.42796875 -2.890625 10.6484375 C-5.83585597 12.53556697 -5.97087611 14.27476726 -6.75 17.625 C-6.99234375 18.62789062 -7.2346875 19.63078125 -7.484375 20.6640625 C-7.65453125 21.43492188 -7.8246875 22.20578125 -8 23 C-9.32 23.33 -10.64 23.66 -12 24 C-11.5508135 18.13250129 -9.00382518 14.08123185 -6 9.1875 C-5.30390625 8.02444336 -5.30390625 8.02444336 -4.59375 6.83789062 C-1.20041209 1.20041209 -1.20041209 1.20041209 0 0 Z " fill="#6ACCD9" transform="translate(86,31)"/>
<path d="M0 0 C0 2.94825157 -0.36356358 5.5380489 -0.875 8.4375 C-1.03742187 9.38496094 -1.19984375 10.33242187 -1.3671875 11.30859375 C-1.95741892 13.81889898 -2.7413343 15.76295969 -4 18 C-4.99 18 -5.98 18 -7 18 C-7 17.34 -7 16.68 -7 16 C-7.66 16 -8.32 16 -9 16 C-9.33 15.01 -9.66 14.02 -10 13 C-9.54625 12.608125 -9.0925 12.21625 -8.625 11.8125 C-6.72357081 9.69167513 -5.93795972 7.66957765 -5 5 C-4.34 5 -3.68 5 -3 5 C-2.690625 4.360625 -2.38125 3.72125 -2.0625 3.0625 C-1 1 -1 1 0 0 Z " fill="#F97904" transform="translate(53,55)"/>
<path d="M0 0 C0.33 0.66 0.66 1.32 1 2 C0.2578125 4.20703125 0.2578125 4.20703125 -0.875 6.8125 C-2.3455877 10.21130585 -3.3829229 13.34348995 -4 17 C-4.66 17 -5.32 17 -6 17 C-6.33 22.94 -6.66 28.88 -7 35 C-7.33 35 -7.66 35 -8 35 C-8.62106963 21.80572074 -8.58903269 10.85593281 0 0 Z " fill="#75CDD9" transform="translate(13,22)"/>
<path d="M0 0 C0.58984375 1.875 0.58984375 1.875 1 4 C0.02727325 5.35335895 -0.9739266 6.68662604 -2 8 C-2 9.32 -2 10.64 -2 12 C0.31 12.33 2.62 12.66 5 13 C4.01 13.66 3.02 14.32 2 15 C-0.26171875 14.3203125 -0.26171875 14.3203125 -2.6875 13.125 C-3.49574219 12.73570313 -4.30398437 12.34640625 -5.13671875 11.9453125 C-5.75160156 11.63335937 -6.36648437 11.32140625 -7 11 C-7 7.22089522 -6.00296038 6.53893899 -3.5 3.8125 C-2.8503125 3.09707031 -2.200625 2.38164063 -1.53125 1.64453125 C-1.0259375 1.10183594 -0.520625 0.55914062 0 0 Z " fill="#F0A863" transform="translate(34,75)"/>
<path d="M0 0 C0.33 1.32 0.66 2.64 1 4 C1.66 4 2.32 4 3 4 C3.33 3.01 3.66 2.02 4 1 C5.32 1.33 6.64 1.66 8 2 C6.55746343 5.36591866 4.66735273 7.51047079 2 10 C1.34 8.68 0.68 7.36 0 6 C-1.98 6.66 -3.96 7.32 -6 8 C-4.55746343 4.63408134 -2.66735273 2.48952921 0 0 Z " fill="#F49B48" transform="translate(73,30)"/>
<path d="M0 0 C19.00892184 -0.80225227 19.00892184 -0.80225227 28 4 C28.66 4.66 29.32 5.32 30 6 C28.33388095 6.042721 26.66617115 6.04063832 25 6 C24.67 5.67 24.34 5.34 24 5 C21.67182036 4.63239269 19.3381615 4.29758419 17 4 C17 3.34 17 2.68 17 2 C11.39 1.67 5.78 1.34 0 1 C0 0.67 0 0.34 0 0 Z " fill="#81D3E1" transform="translate(39,5)"/>
<path d="M0 0 C0.66 0.99 1.32 1.98 2 3 C0.71863643 6.98646445 -1.66681693 8.04239781 -5.24609375 9.91796875 C-7.78144464 11.48209391 -9.31840167 13.5784984 -11 16 C-11.66 15.67 -12.32 15.34 -13 15 C-11.58611621 13.24775086 -10.16877217 11.49829345 -8.75 9.75 C-7.96109375 8.77546875 -7.1721875 7.8009375 -6.359375 6.796875 C-4.33534195 4.39752456 -2.25877651 2.17588563 0 0 Z " fill="#F3A558" transform="translate(61,44)"/>
<path d="M0 0 C5.875 3.75 5.875 3.75 7 6 C5.3790787 7.17232685 3.75313167 8.3377077 2.125 9.5 C1.22007813 10.1496875 0.31515625 10.799375 -0.6171875 11.46875 C-3 13 -3 13 -5 13 C-5 12.01 -5 11.02 -5 10 C-3.68 10 -2.36 10 -1 10 C-1 9.01 -1 8.02 -1 7 C-0.01 7 0.98 7 2 7 C1.34 4.69 0.68 2.38 0 0 Z " fill="#74CFD9" transform="translate(70,11)"/>
<path d="M0 0 C0 1.65 0 3.3 0 5 C0.99 5 1.98 5 3 5 C3 5.66 3 6.32 3 7 C-1.455 7.495 -1.455 7.495 -6 8 C-2.8 0 -2.8 0 0 0 Z " fill="#62C9D5" transform="translate(59,82)"/>
<path d="M0 0 C1.32 0.33 2.64 0.66 4 1 C2.59023295 4.03852705 0.91129772 6.5939595 -1.125 9.25 C-1.66382813 9.95640625 -2.20265625 10.6628125 -2.7578125 11.390625 C-3.16773438 11.92171875 -3.57765625 12.4528125 -4 13 C-5.43088528 10.13822943 -4.59991697 8.06624227 -4 5 C-2.68 5 -1.36 5 0 5 C0 3.35 0 1.7 0 0 Z " fill="#F4A65C" transform="translate(49,68)"/>
<path d="M0 0 C0 0.99 0 1.98 0 3 C-0.8971875 3.0928125 -0.8971875 3.0928125 -1.8125 3.1875 C-4.24455676 3.8292145 -4.24455676 3.8292145 -5.4375 6.4375 C-7.29291963 9.4803882 -8.65276481 10.00487602 -12 11 C-10.5611898 7.612801 -8.77880501 5.6405896 -6 3.25 C-5.29875 2.63640625 -4.5975 2.0228125 -3.875 1.390625 C-2 0 -2 0 0 0 Z " fill="#7DD4DD" transform="translate(26,11)"/>
<path d="M0 0 C1.60031344 3.20062687 0.03173691 5.72271806 -1 9 C-2.32 9.33 -3.64 9.66 -5 10 C-4.56802365 5.2482602 -3.67230705 3.07999946 0 0 Z " fill="#56C5D6" transform="translate(79,45)"/>
<path d="M0 0 C0.75 1.5625 0.75 1.5625 1 4 C-0.13084437 6.50286409 -1.52139516 8.67007722 -3 11 C-4.11651815 7.65044556 -3.99822121 6.32740404 -3 3 C-1.4375 1.1875 -1.4375 1.1875 0 0 Z " fill="#F49239" transform="translate(66,38)"/>
<path d="M0 0 C0.99 0.33 1.98 0.66 3 1 C3 1.99 3 2.98 3 4 C2.236875 4.268125 1.47375 4.53625 0.6875 4.8125 C-1.87380884 5.94424112 -3.19692938 6.91223401 -5 9 C-3.375 2.25 -3.375 2.25 0 0 Z " fill="#F67B0C" transform="translate(71,35)"/>
<path d="M0 0 C-1.65 1.32 -3.3 2.64 -5 4 C-5.33 3.01 -5.66 2.02 -6 1 C-6.66 1 -7.32 1 -8 1 C-8 0.34 -8 -0.32 -8 -1 C-4.37673261 -2.2077558 -3.35853631 -1.54311128 0 0 Z " fill="#53C6D3" transform="translate(56,30)"/>
<path d="M0 0 C0.66 0.66 1.32 1.32 2 2 C1.67 2.99 1.34 3.98 1 5 C1 4.34 1 3.68 1 3 C0.34 3 -0.32 3 -1 3 C-1.33 4.32 -1.66 5.64 -2 7 C-2.66 6.67 -3.32 6.34 -4 6 C-3.67 4.35 -3.34 2.7 -3 1 C-2.01 0.67 -1.02 0.34 0 0 Z " fill="#F47A0C" transform="translate(78,28)"/>
<path d="M0 0 C0 1.98 0 3.96 0 6 C-1.175625 6.2165625 -1.175625 6.2165625 -2.375 6.4375 C-4.96421018 6.87798925 -4.96421018 6.87798925 -7 8 C-5.84316054 5.30070793 -3.38550714 0 0 0 Z " fill="#F3A660" transform="translate(74,30)"/>
<path d="M0 0 C0 2.83967231 -0.40267181 5.23735711 -1 8 C-2.65 8 -4.3 8 -6 8 C-5.67 7.01 -5.34 6.02 -5 5 C-4.34 5 -3.68 5 -3 5 C-2.5359375 4.0409375 -2.5359375 4.0409375 -2.0625 3.0625 C-1 1 -1 1 0 0 Z " fill="#F37D15" transform="translate(53,55)"/>
<path d="M0 0 C1.65 0.33 3.3 0.66 5 1 C3.71034824 2.37562854 2.37310707 3.70766393 1 5 C0.34 5 -0.32 5 -1 5 C-0.67 3.35 -0.34 1.7 0 0 Z " fill="#66CBD5" transform="translate(28,44)"/>
<path d="M0 0 C2.64 0 5.28 0 8 0 C5.37801226 2.15377564 3.35595828 3.40072174 0 4 C0 2.68 0 1.36 0 0 Z " fill="#68CCD9" transform="translate(63,84)"/>
<path d="M0 0 C2.31 0 4.62 0 7 0 C5.71034824 1.37562854 4.37310707 2.70766393 3 4 C2.34 4 1.68 4 1 4 C0.67 2.68 0.34 1.36 0 0 Z " fill="#70CED8" transform="translate(6,58)"/>
</svg>
